<svg xmlns="http://www.w3.org/2000/svg" height="937.5pt" version="1.1" viewBox="0 0 937.5 937.5" width="937.5pt">
<g id="surface1">
<path d="M 921.875 62.5 L 875 62.5 L 875 15.625 C 875 6.992188 868.007812 0 859.375 0 L 595.671875 0 C 563.789062 0.0234375 533.925781 15.582031 515.625 41.6875 C 497.324219 15.578125 467.460938 0.0234375 435.578125 0 L 171.875 0 C 163.242188 0 156.25 6.992188 156.25 15.625 L 156.25 62.5 L 109.375 62.5 C 100.742188 62.5 93.75 69.492188 93.75 78.125 L 93.75 343.75 L 125 343.75 L 125 93.75 L 156.25 93.75 L 156.25 343.75 L 187.5 343.75 L 187.5 31.25 L 435.578125 31.25 C 465.605469 31.21875 491.953125 51.230469 500 80.152344 L 500 312.5 L 531.25 312.5 L 531.25 80.152344 C 539.296875 51.230469 565.644531 31.21875 595.671875 31.25 L 718.75 31.25 L 718.75 140.625 C 718.75 149.257812 725.742188 156.25 734.375 156.25 L 843.75 156.25 L 843.75 609.375 L 687.5 609.375 L 687.5 640.625 L 859.375 640.625 C 868.007812 640.625 875 633.632812 875 625 L 875 93.75 L 906.25 93.75 L 903.714844 670.664062 L 687.5 671.875 L 687.652344 703.125 L 919.4375 701.832031 C 928.03125 701.777344 934.964844 694.796875 934.964844 686.207031 L 937.5 134.8125 L 937.5 78.125 C 937.5 69.492188 930.507812 62.5 921.875 62.5 Z M 843.75 102.90625 L 772.09375 31.25 L 843.75 31.25 Z M 750 125 L 750 53.34375 L 821.65625 125 Z M 750 125 " style=" stroke:none;fill-rule:nonzero;fill:rgb(0%,0%,0%);fill-opacity:1;" />
<path d="M 218.75 125 L 468.75 125 L 468.75 156.25 L 218.75 156.25 Z M 218.75 125 " style=" stroke:none;fill-rule:nonzero;fill:rgb(0%,0%,0%);fill-opacity:1;" />
<path d="M 406.25 218.75 L 468.75 218.75 L 468.75 250 L 406.25 250 Z M 406.25 218.75 " style=" stroke:none;fill-rule:nonzero;fill:rgb(0%,0%,0%);fill-opacity:1;" />
<path d="M 218.75 218.75 L 375 218.75 L 375 250 L 218.75 250 Z M 218.75 218.75 " style=" stroke:none;fill-rule:nonzero;fill:rgb(0%,0%,0%);fill-opacity:1;" />
<path d="M 750 218.75 L 812.5 218.75 L 812.5 250 L 750 250 Z M 750 218.75 " style=" stroke:none;fill-rule:nonzero;fill:rgb(0%,0%,0%);fill-opacity:1;" />
<path d="M 562.5 218.75 L 718.75 218.75 L 718.75 250 L 562.5 250 Z M 562.5 218.75 " style=" stroke:none;fill-rule:nonzero;fill:rgb(0%,0%,0%);fill-opacity:1;" />
<path d="M 750 312.5 L 812.5 312.5 L 812.5 343.75 L 750 343.75 Z M 750 312.5 " style=" stroke:none;fill-rule:nonzero;fill:rgb(0%,0%,0%);fill-opacity:1;" />
<path d="M 562.5 312.5 L 718.75 312.5 L 718.75 343.75 L 562.5 343.75 Z M 562.5 312.5 " style=" stroke:none;fill-rule:nonzero;fill:rgb(0%,0%,0%);fill-opacity:1;" />
<path d="M 750 406.25 L 812.5 406.25 L 812.5 437.5 L 750 437.5 Z M 750 406.25 " style=" stroke:none;fill-rule:nonzero;fill:rgb(0%,0%,0%);fill-opacity:1;" />
<path d="M 625 406.25 L 718.75 406.25 L 718.75 437.5 L 625 437.5 Z M 625 406.25 " style=" stroke:none;fill-rule:nonzero;fill:rgb(0%,0%,0%);fill-opacity:1;" />
<path d="M 750 500 L 812.5 500 L 812.5 531.25 L 750 531.25 Z M 750 500 " style=" stroke:none;fill-rule:nonzero;fill:rgb(0%,0%,0%);fill-opacity:1;" />
<path d="M 625 500 L 718.75 500 L 718.75 531.25 L 625 531.25 Z M 625 500 " style=" stroke:none;fill-rule:nonzero;fill:rgb(0%,0%,0%);fill-opacity:1;" />
<path d="M 562.5 125 L 687.5 125 L 687.5 156.25 L 562.5 156.25 Z M 562.5 125 " style=" stroke:none;fill-rule:nonzero;fill:rgb(0%,0%,0%);fill-opacity:1;" />
<path d="M 78.125 937.5 L 578.125 937.5 C 586.757812 937.5 593.75 930.507812 593.75 921.875 L 593.75 796.875 L 640.625 796.875 C 649.257812 796.875 656.25 789.882812 656.25 781.25 L 656.25 625 C 656.25 616.367188 649.257812 609.375 640.625 609.375 L 593.75 609.375 L 593.75 390.625 C 593.75 381.992188 586.757812 375 578.125 375 L 503.898438 375 L 499.628906 355.953125 C 498.671875 351.71875 496.007812 348.078125 492.273438 345.890625 C 488.523438 343.695312 484.042969 343.164062 479.886719 344.410156 L 416.796875 363.328125 L 372.828125 288.925781 C 368.4375 281.492188 358.847656 279.027344 351.425781 283.421875 L 196.4375 375 L 78.125 375 C 35 375.054688 0.0546875 410 0 453.125 L 0 859.375 C 0.0546875 902.5 35 937.445312 78.125 937.5 Z M 625 765.625 L 515.625 765.625 C 481.109375 765.625 453.125 737.640625 453.125 703.125 C 453.125 668.609375 481.109375 640.625 515.625 640.625 L 625 640.625 Z M 515.625 609.375 C 463.859375 609.375 421.875 651.359375 421.875 703.125 C 421.875 754.890625 463.859375 796.875 515.625 796.875 L 562.5 796.875 L 562.5 906.25 L 78.125 906.25 C 52.242188 906.25 31.25 885.257812 31.25 859.375 L 31.25 515.625 C 31.859375 516.089844 32.5625 516.414062 33.195312 516.855469 C 34.453125 517.753906 35.796875 518.53125 37.109375 519.355469 C 39.769531 521.007812 42.53125 522.507812 45.355469 523.835938 C 46.921875 524.53125 48.378906 525.199219 49.929688 525.8125 C 53.003906 526.976562 56.128906 527.949219 59.316406 528.714844 C 60.785156 529.078125 62.1875 529.535156 63.691406 529.8125 C 68.445312 530.738281 73.28125 531.21875 78.125 531.25 L 562.5 531.25 L 562.5 609.375 Z M 562.5 406.25 L 562.5 500 L 531.933594 500 L 510.9375 406.25 Z M 499.925781 500 L 78.125 500 C 76.085938 499.929688 74.0625 499.726562 72.046875 499.390625 L 472.792969 379.175781 Z M 353.875 318.285156 L 385.9375 372.582031 L 134.125 448.144531 Z M 78.125 406.25 L 143.550781 406.25 L 34.707031 470.582031 C 32.441406 465.035156 31.257812 459.109375 31.25 453.125 C 31.25 427.242188 52.242188 406.25 78.125 406.25 Z M 78.125 406.25 " style=" stroke:none;fill-rule:nonzero;fill:rgb(0%,0%,0%);fill-opacity:1;" />
<path d="M 546.875 703.125 C 546.875 720.386719 532.886719 734.375 515.625 734.375 C 498.363281 734.375 484.375 720.386719 484.375 703.125 C 484.375 685.863281 498.363281 671.875 515.625 671.875 C 532.886719 671.875 546.875 685.863281 546.875 703.125 Z M 546.875 703.125 " style=" stroke:none;fill-rule:nonzero;fill:rgb(0%,0%,0%);fill-opacity:1;" />
<path d="M 750 937.5 C 781.242188 937.351562 809.398438 918.695312 821.71875 889.984375 C 823.875 890.160156 825.933594 890.625 828.125 890.625 C 867.21875 890.648438 900.304688 861.765625 905.578125 823.039062 C 910.859375 784.300781 886.6875 747.632812 849.015625 737.207031 C 811.335938 726.777344 771.753906 745.800781 756.359375 781.734375 C 754.238281 781.53125 752.089844 781.25 750 781.25 C 706.855469 781.25 671.875 816.230469 671.875 859.375 C 671.875 902.519531 706.855469 937.5 750 937.5 Z M 828.125 765.625 C 846.53125 765.386719 863.378906 775.945312 871.191406 792.625 C 879 809.300781 876.320312 829.003906 864.34375 842.988281 C 852.363281 856.972656 833.304688 862.648438 815.625 857.496094 C 815.523438 857.429688 815.425781 857.375 815.3125 857.328125 C 805.546875 854.550781 796.949219 848.691406 790.796875 840.625 C 789.574219 838.984375 788.457031 837.265625 787.46875 835.472656 C 787.078125 834.765625 786.675781 834.058594 786.320312 833.324219 C 785.554688 831.839844 784.886719 830.316406 784.304688 828.75 C 783.828125 827.453125 783.421875 826.113281 783.066406 824.757812 C 782.703125 823.390625 782.351562 822.324219 782.128906 821.054688 C 781.5625 818.242188 781.273438 815.375 781.25 812.5 C 781.308594 786.632812 802.257812 765.683594 828.125 765.625 Z M 750 812.5 C 750.046875 817.089844 750.511719 821.679688 751.390625 826.179688 C 751.640625 827.660156 751.960938 829.097656 752.3125 830.527344 C 753.066406 833.617188 754.003906 836.660156 755.136719 839.625 C 755.953125 841.828125 756.859375 843.953125 757.871094 846.046875 C 759.101562 848.640625 760.472656 851.179688 761.988281 853.625 C 763.273438 855.660156 764.652344 857.574219 766.109375 859.484375 C 767.144531 860.828125 768.238281 862.109375 769.339844 863.390625 C 775.199219 870.148438 782.171875 875.839844 789.953125 880.234375 C 790.46875 880.527344 790.941406 880.90625 791.515625 881.191406 C 780.820312 901.523438 756.960938 911.125 735.164062 903.832031 C 713.375 896.554688 700.074219 874.539062 703.757812 851.859375 C 707.429688 829.175781 727.023438 812.507812 750 812.5 Z M 750 812.5 " style=" stroke:none;fill-rule:nonzero;fill:rgb(0%,0%,0%);fill-opacity:1;" />
</g>
</svg>